<svg xmlns="http://www.w3.org/2000/svg" width="190" height="34" fill="none"><path fill="#000C02" d="M4.387 33.334V22.357H9.51c2.145 0 3.371 1.008 3.371 2.745 0 1.08-.481 1.926-1.386 2.422 1.197.41 1.839 1.372 1.839 2.628 0 1.897-1.46 3.182-3.708 3.182h-5.24Zm4.86-1.737c1.416 0 2.219-.511 2.219-1.504 0-1.065-.832-1.59-2.336-1.59H6.226v3.094h3.021Zm-.234-4.832c1.3 0 2-.569 2-1.43 0-.876-.671-1.255-1.854-1.255H6.255v2.685h2.758ZM14.785 33.334V22.357h7.91v1.694h-6.027v2.86h5.546v1.708h-5.546v2.978h6.16v1.737h-8.043ZM28.459 33.509c-2.453 0-4.759-1.066-4.759-3.65h1.825c0 1.27 1.489 1.884 2.934 1.884 1.43 0 2.744-.526 2.744-1.547 0-2.686-7.182-.438-7.182-4.803 0-2.145 2.03-3.21 4.438-3.21 2.437 0 4.495 1.21 4.495 3.283H30.94c0-1.094-1.124-1.561-2.482-1.561-1.357 0-2.495.54-2.495 1.576 0 2.423 7.195.263 7.195 4.744 0 2.16-2.102 3.284-4.7 3.284ZM33.25 24.05v-1.692h9.08v1.693h-3.548v9.283h-1.926V24.05H33.25ZM41.71 29.276V27.7h5.444v1.576H41.71ZM48.838 33.334V22.357h1.913v9.123h6.247v1.854h-8.16ZM58.096 33.334V22.357h7.911v1.694H59.98v2.86h5.547v1.708h-5.547v2.978h6.16v1.737h-8.042ZM67.654 33.334V22.357h4.422c3.401 0 5.27 2.102 5.27 5.43 0 3.27-1.869 5.547-5.27 5.547h-4.422Zm4.16-1.942c2.291 0 3.517-1.182 3.517-3.634 0-2.467-1.226-3.532-3.517-3.532h-2.219v7.166h2.219ZM86.826 33.494c-3.27 0-5.459-2.19-5.459-5.503 0-3.444 2.117-5.809 5.357-5.809 2.233 0 4.058 1.124 4.802 3.139l-1.854.496c-.51-1.139-1.605-1.766-2.904-1.766-2.131 0-3.474 1.561-3.474 3.853 0 2.233 1.401 3.736 3.503 3.736 1.489 0 2.715-.905 3.24-2.525l1.84.438c-.803 2.51-2.672 3.941-5.05 3.941ZM97.88 33.596c-3.21 0-5.459-2.408-5.459-5.707 0-3.255 2.131-5.78 5.46-5.78 3.298 0 5.4 2.54 5.4 5.78 0 3.299-2.219 5.707-5.4 5.707Zm-3.517-5.736c0 2.306 1.474 3.912 3.517 3.912 2.014 0 3.489-1.606 3.489-3.912 0-2.248-1.358-3.912-3.489-3.912-2.16 0-3.517 1.664-3.517 3.912ZM104.743 33.334V22.357h2.555l3.211 8.48 3.167-8.48h2.511v10.977h-1.869v-7.707l-2.948 7.707h-1.752l-2.992-7.736v7.736h-1.883ZM123.081 27.174c1.124 0 1.81-.598 1.81-1.562 0-.978-.686-1.547-1.81-1.547h-2.963v3.11h2.963Zm-4.846 6.16V22.357h4.86c2.277 0 3.737 1.3 3.737 3.197 0 1.985-1.474 3.357-3.737 3.357h-2.977v4.423h-1.883ZM131.329 24.299l-1.635 4.51h3.285l-1.65-4.51Zm-5.342 9.035 4.116-10.977h2.481l4.029 10.977h-1.985l-1.007-2.759h-4.569l-1.007 2.759h-2.058ZM137.635 33.334V22.357h2.029l5.488 7.897v-7.896h1.897v10.976h-1.97l-5.532-7.911v7.91h-1.912ZM149.088 33.334V22.357h1.956v10.977h-1.956ZM153.087 33.334V22.357h7.911v1.694h-6.029v2.86h5.547v1.708h-5.547v2.978h6.16v1.737h-8.042ZM166.76 33.509c-2.452 0-4.758-1.066-4.758-3.65h1.824c0 1.27 1.489 1.884 2.934 1.884 1.43 0 2.744-.526 2.744-1.547 0-2.686-7.181-.438-7.181-4.803 0-2.145 2.029-3.21 4.437-3.21 2.438 0 4.496 1.21 4.496 3.283h-2.015c0-1.094-1.123-1.561-2.481-1.561-1.357 0-2.496.54-2.496 1.576 0 2.423 7.196.263 7.196 4.744 0 2.16-2.102 3.284-4.7 3.284ZM88.573 10.05v-.882c0-1.06-.306-1.876-.917-2.447-.611-.571-1.487-.856-2.628-.856-1.142 0-1.998.276-2.603.83-.605.553-.908 1.343-.908 2.369 0 .68.13 1.268.39 1.764.259.496.576.9.95 1.21.375.312.851.647 1.427 1.003.669.404 1.16.756 1.47 1.056.312.3.468.668.468 1.106 0 .335-.102.603-.303.805-.202.202-.47.302-.804.302-.358 0-.643-.112-.856-.337-.214-.225-.32-.527-.32-.908v-1.003c0-.07-.035-.103-.104-.103h-2.18c-.069 0-.103.034-.103.103v1.003c0 1.061.309 1.88.925 2.456.617.577 1.496.865 2.637.865s2-.28 2.611-.838c.612-.56.917-1.352.917-2.378 0-.704-.135-1.303-.406-1.799s-.597-.9-.978-1.21c-.38-.312-.87-.651-1.47-1.02-.645-.404-1.115-.75-1.41-1.038a1.441 1.441 0 0 1-.44-1.072c0-.335.098-.6.294-.796.196-.196.461-.294.796-.294.357 0 .64.11.847.328.207.22.311.52.311.9v.882c0 .07.034.104.104.104h2.179c.07 0 .104-.035.104-.105ZM77.086 9.145h3.156c.034 0 .052-.018.052-.052v-2.9c0-.725-.251-1.29-.76-1.69-.496-.387-1.204-.604-2.123-.639-.034 0-.051.017-.051.052v1.067c0 .034.017.052.05.052.463.022.817.125 1.063.302.245.177.37.462.37.856h-1.757c-.035 0-.052.017-.052.052v2.848c0 .034.017.052.052.052Zm-5.674 2.192V8.368h1.518c.262 0 .474.08.628.24.154.16.234.377.234.656v1.176c0 .274-.08.497-.234.657-.154.16-.366.24-.628.24H71.41Zm3.419.998c.462-.182.805-.462 1.033-.839.228-.37.343-.867.343-1.472v-.862c0-.908-.274-1.633-.822-2.164-.549-.536-1.285-.805-2.215-.805H69.1c-.069 0-.103.035-.103.103v11.868c0 .068.034.102.103.102h2.209c.068 0 .103-.034.103-.102v-4.795h1.067c.405 0 .696.108.89.32.189.21.286.542.286.993v3.487c0 .069.034.103.103.103h2.209c.068 0 .103-.034.103-.102v-3.488c0-.645-.098-1.16-.292-1.547-.194-.383-.513-.651-.947-.8Zm-12.08 1.97v-4.139c0-.713.115-1.238.338-1.57.222-.33.57-.502 1.044-.502.474 0 .822.166 1.045.503.223.33.337.856.337 1.57v4.138c0 .713-.114 1.239-.337 1.57-.223.33-.57.502-1.045.502-.473 0-.822-.165-1.044-.502-.229-.337-.337-.857-.337-1.57Zm1.382 4.173c1.233 0 2.175-.349 2.837-1.05.662-.703.994-1.707.994-3.02v-4.35c0-1.313-.332-2.318-.994-3.02-.662-.702-1.61-1.05-2.837-1.05-1.233 0-2.175.348-2.837 1.05-.662.702-.993 1.707-.993 3.02v4.35c0 1.313.331 2.317.993 3.02.657.701 1.604 1.05 2.837 1.05Zm-10.006-4.173v-4.139c0-.713.114-1.238.336-1.57.223-.33.571-.502 1.045-.502s.822.166 1.045.503c.222.33.336.856.336 1.57v4.138c0 .713-.114 1.239-.336 1.57-.223.33-.571.502-1.045.502s-.822-.165-1.045-.502c-.228-.337-.336-.857-.336-1.57Zm1.375 4.173c1.233 0 2.175-.349 2.837-1.05.663-.703.994-1.707.994-3.02v-4.35c0-1.313-.331-2.318-.994-3.02-.662-.702-1.61-1.05-2.837-1.05-1.233 0-2.175.348-2.837 1.05-.662.702-.993 1.707-.993 3.02v4.35c0 1.313.331 2.317.993 3.02.662.701 1.61 1.05 2.837 1.05Zm-9.727-10.11h.862c.542 0 .953.183 1.233.554.28.371.423.896.423 1.587v3.453c0 .691-.143 1.222-.423 1.587-.28.371-.69.554-1.233.554h-.862V8.368Zm-2.312 9.904h3.277c1.29 0 2.278-.36 2.968-1.084.691-.725 1.034-1.764 1.034-3.123v-3.659c0-1.358-.343-2.397-1.034-3.122-.69-.725-1.678-1.085-2.968-1.085h-3.277c-.068 0-.102.034-.102.103v11.867c0 .069.034.103.102.103Zm-1.038-8.111v-.88c0-1.055-.303-1.872-.914-2.443-.61-.57-1.484-.856-2.62-.856-1.125 0-1.992.274-2.597.828-.605.554-.908 1.341-.908 2.363 0 .68.131 1.267.388 1.758.257.497.577.897.948 1.21.37.309.85.646 1.421 1 .668.405 1.159.753 1.467 1.05.309.297.468.668.468 1.101 0 .332-.102.6-.302.805-.2.2-.468.303-.805.303-.354 0-.64-.114-.856-.337-.212-.222-.32-.525-.32-.907v-1c0-.068-.034-.102-.103-.102h-2.175c-.068 0-.102.034-.102.102v1.01c0 1.057.308 1.873.924 2.45.617.576 1.49.862 2.632.862 1.125 0 1.998-.28 2.603-.84.61-.559.913-1.347.913-2.374 0-.702-.137-1.302-.405-1.792a3.993 3.993 0 0 0-.976-1.21c-.377-.309-.868-.651-1.467-1.017-.645-.405-1.113-.747-1.405-1.033a1.442 1.442 0 0 1-.439-1.067c0-.332.097-.6.291-.794.194-.194.462-.291.794-.291.353 0 .639.108.844.325.206.217.309.52.309.897v.879c0 .068.034.102.102.102h2.175c.08 0 .114-.034.114-.102Zm-7.764 0v-.88c0-1.055-.302-1.872-.913-2.443-.611-.57-1.484-.856-2.62-.856-1.13 0-1.993.274-2.598.828-.605.554-.907 1.341-.907 2.363 0 .68.131 1.267.388 1.758.257.497.576.897.948 1.21.37.309.85.646 1.42 1 .669.405 1.16.753 1.468 1.05.308.297.468.668.468 1.101 0 .332-.103.6-.303.805-.2.2-.468.303-.804.303-.354 0-.64-.114-.857-.337-.21-.222-.32-.525-.32-.907v-1c0-.068-.034-.102-.102-.102h-2.175c-.069 0-.103.034-.103.102v1.01c0 1.057.308 1.873.925 2.45.616.576 1.49.862 2.632.862 1.124 0 1.998-.28 2.603-.84.61-.559.913-1.347.913-2.374 0-.702-.137-1.302-.405-1.792a3.994 3.994 0 0 0-.977-1.21c-.376-.309-.867-.651-1.467-1.017-.645-.405-1.113-.747-1.404-1.033a1.442 1.442 0 0 1-.44-1.067c0-.332.098-.6.292-.794.194-.194.462-.291.793-.291.354 0 .64.108.845.325.206.217.308.52.308.897v.879c0 .068.035.102.103.102h2.175c.08 0 .114-.034.114-.102ZM22.36 14.27l.913-4.384.913 4.384H22.36Zm-.811 3.898.4-1.935h2.654l.4 1.935c.022.069.062.103.12.103h2.209c.08 0 .108-.04.085-.12L24.552 6.296c-.012-.068-.052-.103-.12-.103h-2.278c-.057 0-.097.035-.12.103l-2.865 11.85c-.023.08.005.12.085.12h2.175c.069.006.109-.028.12-.096Zm-8.762.103h5.725c.069 0 .103-.034.103-.102V16.2c0-.068-.034-.103-.103-.103H15.1v-9.8c0-.07-.035-.104-.103-.104h-2.21c-.068 0-.102.035-.102.103v11.868c0 .074.034.108.103.108Zm-4.904.206c1.199 0 2.13-.326 2.797-.976.668-.651 1-1.57 1-2.752v-3.31c0-.07-.035-.103-.104-.103H7.952c-.069 0-.103.034-.103.102v1.827c0 .069.034.103.103.103H9.23v1.278c0 1.153-.45 1.724-1.347 1.724-.474 0-.822-.165-1.044-.502-.223-.331-.337-.856-.337-1.57v-4.138c0-.714.114-1.239.337-1.57.222-.331.57-.502 1.044-.502.896 0 1.347.576 1.347 1.723v.24c0 .069.035.103.103.103h2.21c.068 0 .102-.034.102-.103V9.71c0-1.188-.325-2.101-.982-2.752-.656-.65-1.581-.976-2.78-.976-1.256 0-2.203.343-2.854 1.033-.65.697-.976 1.707-.976 3.043v4.35c0 1.313.331 2.317.993 3.02.662.701 1.61 1.05 2.837 1.05ZM3.208 6.193H.051c-.034 0-.051.017-.051.052v2.848c0 .034.017.052.051.052H1.81c0 .393-.126.673-.372.856-.245.177-.599.28-1.061.302-.034 0-.052.017-.052.052v1.067c0 .034.018.052.052.052.919-.035 1.627-.246 2.123-.64.508-.405.76-.964.76-1.69v-2.9c0-.034-.018-.05-.052-.05Z"/><path fill="#FFE126" d="M189.675 5.468c.951 4.697-6.862 10.244-17.452 12.39-10.59 2.145-19.946.076-20.898-4.621-.951-4.697 6.862-10.244 17.452-12.39 10.59-2.145 19.946-.076 20.898 4.62Z"/><path fill="#FFE126" d="m185.018 8.97 4.31 8.058L173.744 15l11.274-6.03Z"/><path fill="#000" d="m159.098 15.39-.176-.89c.778-.85 1.395-1.575 1.85-2.177.461-.61.778-1.133.952-1.567.18-.435.238-.815.173-1.139-.065-.33-.225-.572-.48-.725-.249-.16-.553-.206-.91-.135-.392.078-.692.264-.9.558-.201.292-.262.658-.181 1.098l-1.276.253c-.076-.525-.035-.992.122-1.402.156-.417.41-.758.764-1.025.353-.273.782-.46 1.288-.56.492-.098.938-.095 1.337.008.406.101.743.294 1.009.578.272.275.451.626.535 1.05.088.446.066.9-.067 1.36-.134.455-.394.948-.779 1.48-.379.531-.901 1.13-1.569 1.795l3.218-.639.211 1.063-5.121 1.016ZM167.971 13.755c-.58.115-1.105.065-1.576-.15-.471-.222-.873-.584-1.204-1.086-.326-.51-.561-1.133-.707-1.869-.148-.742-.168-1.408-.06-1.997.114-.59.347-1.075.7-1.454.351-.385.817-.635 1.397-.75.581-.115 1.106-.065 1.576.15.471.215.868.574 1.193 1.078.331.502.57 1.128.719 1.877.147.742.164 1.408.05 1.999-.108.59-.337 1.077-.688 1.462-.353.378-.819.625-1.4.74Zm-.211-1.062c.486-.097.803-.39.951-.883.153-.5.147-1.165-.017-1.995-.167-.837-.415-1.454-.746-1.85-.325-.4-.73-.55-1.216-.454-.472.094-.789.388-.95.883-.155.494-.149 1.159.017 1.995.165.83.414 1.447.746 1.85.338.396.743.547 1.215.454ZM171.655 12.898l-.177-.89c.779-.85 1.395-1.575 1.851-2.177.461-.61.778-1.133.951-1.567.18-.435.238-.815.174-1.139-.066-.33-.226-.572-.481-.725-.249-.16-.552-.206-.91-.135-.391.078-.691.264-.899.558-.202.292-.262.658-.182 1.098l-1.275.253c-.076-.525-.036-.992.122-1.402.155-.417.41-.758.764-1.025.352-.273.782-.46 1.288-.56.492-.098.938-.095 1.337.008.406.102.742.294 1.009.578.272.276.45.626.535 1.05.088.446.066.9-.067 1.36-.134.455-.394.948-.779 1.48-.379.531-.902 1.13-1.569 1.795l3.218-.639.211 1.063-5.121 1.016ZM180.486 11.261c-.486.097-.928.097-1.326 0a2.174 2.174 0 0 1-.994-.56 2.339 2.339 0 0 1-.565-1.044l1.265-.252c.089.312.261.541.514.687.259.138.557.174.895.107.283-.056.514-.165.692-.327.178-.162.299-.368.361-.619.069-.252.073-.533.012-.843-.078-.392-.256-.686-.533-.883-.279-.205-.608-.27-.985-.194a1.495 1.495 0 0 0-.727.365c-.21.182-.362.387-.456.617l-1.174.232-.185-4.107 4.079-.81.211 1.063-3.036.602.058 1.83a2.17 2.17 0 0 1 .575-.598c.241-.167.502-.279.786-.335.432-.086.833-.06 1.204.077.376.128.694.353.954.673.265.312.445.707.54 1.186.106.533.086 1.017-.059 1.453a2.29 2.29 0 0 1-.762 1.087c-.363.29-.811.488-1.344.593Z"/></svg>